<svg xmlns="http://www.w3.org/2000/svg" xmlns:xlink="http://www.w3.org/1999/xlink" width="1080" zoomAndPan="magnify" viewBox="0 0 810 809.999993" height="1080" preserveAspectRatio="xMidYMid meet" version="1.0"><rect x="-81" width="972" fill="#ffffff" y="-80.999999" height="971.999992" fill-opacity="1"/><rect x="-81" width="972" fill="#fffefb" y="-80.999999" height="971.999992" fill-opacity="1"/><path fill="#d7385d" d="M 279.539062 87.988281 C 271.367188 88.800781 249.214844 93.773438 239.578125 96.953125 C 222.6875 102.535156 201.238281 117.230469 182.984375 135.726562 C 177.355469 141.429688 169.074219 152.875 160.648438 166.589844 C 153.15625 178.785156 148.609375 191.082031 144.273438 210.871094 C 137.113281 243.5625 136.8125 249.386719 141.300781 268.648438 C 144.410156 281.984375 147.117188 289.542969 153.175781 301.800781 C 156.222656 307.964844 160.414062 315.785156 162.488281 319.179688 C 164.5625 322.574219 169.894531 331.304688 174.335938 338.578125 C 178.777344 345.855469 183.671875 353.632812 185.214844 355.859375 C 186.757812 358.085938 190.242188 363.1875 192.964844 367.195312 C 206.59375 387.261719 213.308594 394.847656 243.179688 423.898438 C 244.25 424.941406 252.257812 432.925781 260.980469 441.644531 C 269.703125 450.367188 279.269531 459.585938 282.238281 462.132812 C 285.210938 464.675781 288.765625 467.832031 290.140625 469.140625 C 292.492188 471.378906 292.722656 471.480469 294 470.796875 C 294.746094 470.398438 297.941406 467.667969 301.101562 464.730469 C 308.621094 457.742188 321.363281 446.949219 328.140625 441.832031 C 334.515625 437.015625 337.628906 434.414062 347.039062 426.042969 C 350.902344 422.609375 356.367188 417.871094 359.191406 415.511719 C 375.300781 402.050781 377.710938 400.105469 378.082031 400.25 C 378.476562 400.40625 385.242188 407.714844 395.148438 418.703125 L 399.960938 424.035156 L 374.292969 449.75 C 360.175781 463.898438 344.257812 479.601562 338.921875 484.648438 C 323.84375 498.910156 323.011719 499.722656 323.011719 500.113281 C 323.011719 500.777344 362.0625 539.277344 366.210938 542.707031 C 368.4375 544.546875 371.839844 547.578125 373.769531 549.441406 C 385.59375 560.84375 402.660156 574.019531 405.609375 574.019531 C 408.507812 574.019531 424.585938 561.613281 437.488281 549.414062 C 439.421875 547.589844 442.945312 544.453125 445.320312 542.4375 C 447.695312 540.425781 457.195312 531.214844 466.429688 521.972656 C 475.660156 512.730469 484.945312 503.710938 487.058594 501.929688 C 489.171875 500.148438 490.851562 498.402344 490.789062 498.050781 C 490.730469 497.699219 488.734375 495.382812 486.359375 492.90625 C 481.796875 488.148438 468.066406 473.589844 461.25 466.285156 C 459.023438 463.898438 453.304688 457.820312 448.542969 452.777344 C 443.777344 447.734375 437.953125 441.542969 435.59375 439.019531 C 433.175781 436.429688 430.75 433.839844 428.324219 431.253906 C 426.683594 429.507812 425.097656 427.804688 424.800781 427.46875 C 424.503906 427.132812 421.816406 424.1875 418.832031 420.925781 C 415.84375 417.660156 412.542969 414.019531 411.492188 412.828125 C 408.691406 409.667969 398.941406 398.835938 398.609375 398.519531 C 398.453125 398.371094 396.273438 396.0625 393.761719 393.390625 C 391.253906 390.71875 384.070312 383.183594 377.800781 376.648438 C 371.53125 370.117188 363.988281 362.230469 361.039062 359.125 C 357.289062 355.183594 353.523438 351.261719 349.738281 347.351562 L 343.800781 341.222656 L 338.941406 342.390625 C 334.707031 343.410156 333.070312 343.523438 326.25 343.273438 C 315.007812 342.855469 306.742188 340.617188 294.121094 334.5625 C 285.355469 330.355469 278.546875 326.230469 270.867188 320.472656 C 241.089844 298.136719 218.945312 265.765625 213.621094 236.789062 C 212.390625 230.101562 212.777344 218.292969 214.386719 213.300781 C 216.820312 205.761719 222.84375 197.972656 229.121094 194.25 C 257.863281 177.203125 313.996094 206.101562 345.832031 254.339844 C 360.628906 276.761719 367.097656 299.628906 363.53125 316.902344 L 362.492188 321.953125 L 365.816406 325 C 367.644531 326.679688 377.65625 336.578125 388.0625 347.003906 C 408.238281 367.21875 421.683594 379.59375 439.921875 394.730469 C 446.847656 400.480469 453.777344 406.230469 460.710938 411.976562 C 484.570312 431.757812 495.472656 441.476562 511.855469 457.589844 L 522.234375 467.792969 L 526.128906 464.609375 C 531.210938 460.460938 546.316406 445.941406 556.621094 435.296875 C 561.105469 430.664062 565.480469 426.183594 566.339844 425.347656 C 567.199219 424.511719 574.066406 417.828125 581.605469 410.5 C 603.980469 388.734375 616.574219 372.039062 641.339844 331.289062 C 645.128906 325.054688 648.65625 319.34375 649.171875 318.601562 C 651.304688 315.535156 662.171875 293.648438 663.953125 288.832031 C 668.390625 276.839844 672.078125 261.011719 672.675781 251.371094 C 673.226562 242.519531 671.972656 233.804688 666.652344 209.519531 C 662.136719 188.894531 656.542969 175.449219 645.539062 158.761719 C 634.710938 142.335938 631.949219 139.015625 619.792969 127.820312 C 604.257812 113.507812 587.660156 102.652344 573.839844 97.765625 C 567.53125 95.535156 552.894531 91.78125 541.980469 89.59375 C 533.625 87.917969 532.863281 87.859375 519.03125 87.804688 C 503.304688 87.746094 485.449219 89.179688 475.019531 91.347656 C 468.300781 92.742188 459.910156 95.832031 453.78125 99.167969 C 447.839844 102.398438 437.074219 109.683594 430.761719 114.746094 C 424.644531 119.648438 414.367188 130.046875 409.671875 136.078125 C 407.710938 138.605469 405.914062 140.738281 405.679688 140.824219 C 405.445312 140.90625 403.714844 138.964844 401.832031 136.503906 C 396.988281 130.164062 385.789062 118.894531 379.441406 113.972656 C 359.140625 98.226562 343.742188 91.1875 326.871094 89.925781 C 324.09375 89.71875 318.988281 89.203125 315.53125 88.773438 C 308.121094 87.859375 285.722656 87.371094 279.539062 87.988281 M 567.0625 175.484375 C 562.347656 178.636719 560.894531 179.800781 541.539062 195.921875 C 538.21875 198.6875 533.554688 202.449219 531.179688 204.273438 C 528.804688 206.097656 524.097656 209.859375 520.726562 212.625 C 517.351562 215.394531 513.097656 218.664062 511.273438 219.886719 C 506.953125 222.789062 500.289062 228.328125 492.570312 235.4375 C 489.152344 238.585938 484.011719 243.15625 481.144531 245.59375 C 474.101562 251.582031 468.90625 257.25 464.769531 263.464844 C 459.339844 271.625 456.761719 278.109375 454.492188 289.316406 C 453.484375 294.300781 453.214844 307.308594 453.910156 317.132812 L 454.398438 324.035156 L 438.355469 339.945312 L 422.308594 355.851562 L 423.800781 357.808594 C 424.621094 358.882812 429.410156 363.050781 434.445312 367.070312 L 443.597656 374.378906 L 444.71875 372.8125 C 445.335938 371.953125 446.828125 370.15625 448.035156 368.820312 C 449.242188 367.484375 451.90625 364.324219 453.949219 361.800781 C 457.789062 357.066406 463.066406 351.039062 469.558594 343.980469 L 473.28125 339.929688 L 481.980469 340.121094 C 497.054688 340.449219 504.550781 338.902344 515.789062 333.140625 C 523.613281 329.128906 530.292969 324.550781 533.910156 320.714844 C 535.707031 318.808594 540.316406 314.699219 544.148438 311.578125 C 557.882812 300.410156 559.949219 298.519531 571.140625 286.875 C 602.234375 254.523438 616.492188 236.574219 618.960938 226.664062 C 619.765625 223.429688 619.125 222.480469 616.144531 222.480469 C 609.539062 222.480469 592.953125 236.464844 563.628906 266.761719 C 547.324219 283.605469 541.183594 289.285156 535.058594 293.1875 C 528.664062 297.261719 525.800781 298.09375 521.851562 297.035156 C 519.105469 296.292969 518.339844 294.542969 519.132812 290.824219 C 519.871094 287.359375 523.34375 282.925781 534.417969 271.308594 C 548.042969 257.019531 555.640625 249.542969 569.222656 237.0625 C 578.476562 228.558594 588.234375 217.648438 592.332031 211.21875 C 596.296875 205.003906 597.066406 202.515625 595.753906 200.179688 C 594.984375 198.804688 594.714844 198.699219 592.742188 199.015625 C 586.4375 200.027344 574.945312 208.957031 552.511719 230.269531 C 549.984375 232.667969 544.0625 238.152344 539.351562 242.460938 C 534.636719 246.765625 528.441406 252.683594 525.582031 255.613281 C 518.949219 262.398438 513.726562 266.746094 506.609375 271.414062 C 501.433594 274.808594 500.695312 275.128906 498.128906 275.128906 C 495.957031 275.128906 495.125 274.882812 494.476562 274.050781 C 492.671875 271.730469 494.859375 265.246094 499.210938 260.011719 C 505.5625 252.375 513.132812 244.175781 519.546875 237.992188 C 523.484375 234.199219 529.410156 228.222656 532.722656 224.710938 C 568.238281 187.035156 575.019531 178.390625 571.953125 174.691406 C 570.957031 173.496094 569.742188 173.691406 567.0625 175.484375 M 191.007812 480.890625 C 178.105469 482.449219 167.695312 484.910156 151.835938 490.140625 C 122.710938 499.75 101.105469 510.589844 86.679688 522.839844 C 78.71875 529.597656 72.507812 538.40625 70.546875 545.71875 C 69.433594 549.863281 69.429688 557.726562 70.53125 561.804688 C 75.953125 581.820312 102.628906 600.652344 147.238281 615.960938 C 163.375 621.496094 189.199219 628.382812 207.71875 632.085938 C 229.519531 636.449219 259.628906 641.148438 278.730469 643.171875 C 298.351562 645.25 309.316406 646.3125 314.371094 646.617188 C 317.191406 646.789062 325.210938 647.289062 332.191406 647.726562 C 357.699219 649.335938 369.789062 649.6875 399.691406 649.695312 C 429.714844 649.699219 442.894531 649.320312 468.539062 647.722656 C 488.742188 646.464844 496.207031 645.871094 509.578125 644.457031 C 516.410156 643.734375 523.457031 643.003906 525.238281 642.832031 C 527.023438 642.65625 535.285156 641.558594 543.601562 640.386719 C 620.550781 629.5625 677.589844 611.757812 708.652344 588.871094 C 714.203125 584.777344 721.375 577.6875 724.277344 573.410156 C 728.480469 567.222656 731.214844 559.488281 731.242188 553.738281 C 731.253906 550.25 729.152344 542.734375 727.105469 538.957031 C 724.441406 534.039062 721.261719 530.085938 715.878906 524.992188 C 705.242188 514.921875 689.914062 506.152344 665.257812 496.023438 C 657.578125 492.867188 640.230469 488.058594 638.332031 488.554688 C 636.121094 489.132812 637.515625 490.128906 643.363281 492.160156 C 651.609375 495.019531 655.183594 496.667969 662 500.753906 C 665.191406 502.667969 668.882812 504.777344 670.210938 505.445312 C 675.421875 508.070312 686.148438 517.765625 689.027344 522.449219 C 690.878906 525.460938 691.015625 525.976562 690.972656 529.738281 C 690.921875 534.160156 690.742188 534.628906 686.28125 542.160156 C 682.515625 548.515625 680.675781 550.664062 674.863281 555.507812 C 667.039062 562.027344 643.003906 575.328125 634.589844 577.792969 C 632.363281 578.445312 626.042969 580.507812 620.550781 582.378906 C 602.425781 588.550781 585.625 592.914062 559.410156 598.273438 C 538.621094 602.519531 516.203125 605.085938 488.25 606.414062 C 481.863281 606.71875 474.210938 607.199219 471.238281 607.488281 C 463.382812 608.242188 439.183594 609.609375 424.53125 610.125 C 417.550781 610.371094 400.785156 610.355469 387.269531 610.09375 C 373.757812 609.832031 358.324219 609.539062 352.980469 609.445312 C 343.132812 609.273438 333.542969 608.617188 320.308594 607.207031 C 316.300781 606.777344 309.132812 606.179688 304.378906 605.875 C 290.058594 604.957031 275.210938 602.648438 236.609375 595.34375 C 189.617188 586.449219 166.84375 580.351562 146.96875 571.347656 C 139.132812 567.792969 137.074219 566.554688 132.324219 562.523438 C 129.425781 560.0625 128.488281 558.824219 126.757812 555.128906 C 124.6875 550.714844 124.675781 550.660156 125.015625 545.75 C 125.613281 537.125 127.265625 533.296875 134.9375 522.796875 C 141.746094 513.472656 151.796875 503.164062 158.144531 498.992188 C 166.289062 493.636719 178.480469 487.941406 188.867188 484.640625 C 194.1875 482.949219 198.84375 481.480469 199.214844 481.371094 C 199.585938 481.261719 199.890625 480.921875 199.890625 480.617188 C 199.890625 479.9375 198.582031 479.976562 191.007812 480.890625 M 706.398438 602.867188 C 705.660156 603.269531 702.628906 604.980469 699.660156 606.660156 C 690.882812 611.628906 662.617188 625.480469 652.28125 629.878906 C 633.179688 638.007812 619.699219 643.070312 611.910156 645.03125 C 598.4375 648.421875 578.386719 652.472656 553.320312 656.871094 C 545.597656 658.222656 538.066406 659.574219 536.578125 659.867188 C 530.015625 661.171875 504.375 664.230469 493.789062 664.96875 C 483.773438 665.667969 458.515625 666.089844 426.421875 666.089844 C 392.4375 666.089844 341.570312 665.523438 332.191406 665.042969 C 329.664062 664.914062 324.441406 664.664062 320.578125 664.488281 C 316.71875 664.316406 312.953125 664.070312 312.210938 663.945312 C 311.46875 663.820312 308.550781 663.570312 305.730469 663.386719 C 300.8125 663.070312 291.214844 662.117188 281.402344 660.972656 C 275.644531 660.300781 255.632812 657.347656 252 656.632812 C 229.429688 652.207031 224.460938 651.144531 216.578125 649.066406 C 213.191406 648.175781 208.839844 647.054688 206.910156 646.578125 C 195.722656 643.816406 164.355469 635.210938 158.851562 633.394531 C 156.917969 632.753906 151.332031 630.703125 146.429688 628.835938 C 141.53125 626.964844 134.605469 624.410156 131.039062 623.160156 C 122.546875 620.175781 112.394531 614.984375 105.1875 609.941406 C 101.996094 607.707031 99.050781 605.878906 98.640625 605.878906 C 96.949219 605.878906 97.351562 607.214844 100.167969 610.957031 C 101.800781 613.125 104.894531 618.035156 107.042969 621.867188 C 117.804688 641.058594 122.019531 647.300781 129.292969 654.832031 C 133.929688 659.628906 138.449219 663.082031 144 666.050781 C 145.484375 666.847656 147.066406 667.730469 147.511719 668.011719 C 149.375 669.191406 160.917969 674.414062 163.035156 675.035156 C 164.296875 675.40625 165.328125 675.914062 165.328125 676.164062 C 165.328125 676.414062 165.753906 676.621094 166.273438 676.625 C 166.792969 676.625 167.917969 676.988281 168.765625 677.433594 C 169.617188 677.878906 170.742188 678.238281 171.265625 678.238281 C 171.789062 678.238281 172.519531 678.605469 172.890625 679.050781 C 173.261719 679.496094 174.214844 679.859375 175.007812 679.859375 C 175.804688 679.859375 176.683594 680.066406 176.96875 680.316406 C 177.25 680.566406 178.878906 681.195312 180.582031 681.714844 C 182.289062 682.234375 183.824219 682.878906 183.992188 683.148438 C 184.15625 683.417969 185.148438 683.640625 186.191406 683.640625 C 187.234375 683.640625 188.453125 684.003906 188.898438 684.449219 C 189.34375 684.894531 190.558594 685.261719 191.597656 685.261719 C 192.636719 685.261719 193.851562 685.625 194.296875 686.070312 C 194.742188 686.515625 195.621094 686.878906 196.246094 686.878906 C 196.871094 686.878906 198.128906 687.125 199.042969 687.425781 C 204.394531 689.1875 216.742188 692.28125 218.429688 692.28125 C 219.519531 692.28125 220.410156 692.488281 220.410156 692.746094 C 220.410156 693 221.929688 693.496094 223.785156 693.839844 C 225.640625 694.1875 228.496094 694.71875 230.128906 695.023438 C 231.761719 695.328125 233.332031 695.808594 233.613281 696.089844 C 233.894531 696.371094 235.261719 696.601562 236.652344 696.601562 C 238.171875 696.601562 239.429688 696.90625 239.8125 697.363281 C 240.191406 697.820312 241.800781 698.21875 243.792969 698.347656 C 246.773438 698.542969 255.476562 700.050781 261.863281 701.484375 C 263.128906 701.769531 265.984375 702 268.207031 702 C 271.589844 702 272.25 702.144531 272.25 702.882812 C 272.25 703.628906 272.695312 703.722656 275.085938 703.46875 C 276.644531 703.304688 279.257812 703.386719 280.890625 703.652344 C 282.523438 703.917969 287.199219 704.390625 291.28125 704.695312 C 295.363281 705.003906 300.585938 705.648438 302.890625 706.128906 C 312.363281 708.097656 336.375 710.066406 355.546875 710.449219 C 364.085938 710.621094 371.070312 710.976562 371.070312 711.238281 C 371.070312 711.515625 385.027344 711.71875 403.738281 711.71875 C 425.160156 711.71875 436.410156 711.535156 436.410156 711.179688 C 436.410156 710.835938 440.765625 710.640625 448.394531 710.640625 C 454.984375 710.640625 463.0625 710.394531 466.347656 710.09375 C 472.433594 709.535156 475.554688 709.28125 495.539062 707.707031 C 501.777344 707.214844 508.09375 706.570312 509.578125 706.277344 C 511.066406 705.980469 514.800781 705.523438 517.882812 705.257812 C 520.96875 704.996094 523.75 704.515625 524.066406 704.199219 C 524.394531 703.871094 526.816406 703.621094 529.667969 703.621094 C 533.773438 703.621094 534.691406 703.472656 534.691406 702.808594 C 534.691406 702.164062 535.476562 702 538.542969 702 C 542.605469 702 547.566406 701.328125 552.511719 700.109375 C 556.613281 699.097656 562.234375 698.21875 564.605469 698.21875 C 565.867188 698.21875 566.695312 697.925781 566.894531 697.410156 C 567.121094 696.820312 568.046875 696.601562 570.28125 696.601562 C 571.96875 696.601562 573.585938 696.371094 573.867188 696.089844 C 574.148438 695.808594 575.714844 695.335938 577.351562 695.042969 C 582.355469 694.140625 585.675781 693.339844 586.65625 692.796875 C 587.171875 692.511719 588.285156 692.28125 589.128906 692.28125 C 589.976562 692.28125 593.683594 691.457031 597.375 690.453125 C 601.0625 689.445312 604.921875 688.445312 605.953125 688.222656 C 606.980469 688.003906 608.195312 687.625 608.652344 687.378906 C 609.105469 687.136719 610.390625 686.792969 611.503906 686.613281 C 612.617188 686.4375 613.53125 686.058594 613.53125 685.777344 C 613.53125 685.492188 614.386719 685.261719 615.4375 685.261719 C 616.632812 685.261719 617.460938 684.957031 617.65625 684.449219 C 617.835938 683.976562 618.644531 683.640625 619.597656 683.640625 C 621.402344 683.640625 629.894531 680.941406 630.179688 680.277344 C 630.277344 680.046875 631.039062 679.859375 631.867188 679.859375 C 632.699219 679.859375 633.679688 679.496094 634.050781 679.050781 C 634.417969 678.605469 635.0625 678.238281 635.480469 678.238281 C 635.898438 678.238281 638.96875 676.9375 642.300781 675.34375 C 645.632812 673.75 650.183594 671.773438 652.410156 670.949219 C 654.636719 670.128906 656.691406 669.242188 656.972656 668.988281 C 657.253906 668.730469 657.929688 668.519531 658.476562 668.519531 C 659.019531 668.519531 659.605469 668.15625 659.773438 667.710938 C 659.945312 667.265625 660.402344 666.898438 660.792969 666.898438 C 661.742188 666.898438 665 665.164062 665.496094 664.394531 C 665.71875 664.058594 666.511719 663.625 667.265625 663.4375 C 668.730469 663.070312 670.769531 661.3125 670.769531 660.421875 C 670.769531 660.121094 671.5 659.878906 672.390625 659.878906 C 673.46875 659.878906 674.011719 659.609375 674.011719 659.070312 C 674.011719 658.625 674.355469 658.261719 674.78125 658.261719 C 675.207031 658.261719 676.453125 657.410156 677.558594 656.371094 C 678.660156 655.332031 679.628906 654.480469 679.710938 654.480469 C 680.261719 654.480469 687.511719 647.105469 687.511719 646.542969 C 687.511719 646.15625 687.875 645.839844 688.320312 645.839844 C 688.773438 645.839844 689.128906 645.359375 689.128906 644.742188 C 689.128906 644.140625 689.496094 643.507812 689.941406 643.335938 C 690.386719 643.164062 690.75 642.707031 690.75 642.316406 C 690.75 641.925781 691.007812 641.523438 691.328125 641.417969 C 691.996094 641.195312 694.816406 634.390625 695.875 630.449219 C 697.304688 625.117188 700.121094 619.054688 706.835938 606.847656 C 709.007812 602.898438 708.855469 601.511719 706.398438 602.867188 " fill-opacity="1" fill-rule="evenodd"/></svg>