<svg width="40" height="40" viewBox="0 0 40 40" fill="none" xmlns="http://www.w3.org/2000/svg">
<path fill-rule="evenodd" clip-rule="evenodd" d="M26.49 5.92171L29.3633 11.6667H33.3333C34.2174 11.6667 35.0652 12.0179 35.6903 12.643C36.3155 13.2681 36.6666 14.116 36.6666 15V16.6667C36.6668 17.302 36.4853 17.9241 36.1437 18.4598C35.802 18.9954 35.3144 19.4223 34.7383 19.69L32.2066 31.085C31.9598 32.1954 31.3418 33.1883 30.4546 33.9001C29.5674 34.6119 28.4641 34.9999 27.3266 35H12.6733C11.5357 34.9998 10.4321 34.6115 9.5449 33.8995C8.65767 33.1874 8.0398 32.194 7.79331 31.0834L5.25998 19.69C4.68417 19.422 4.19692 18.9951 3.85559 18.4594C3.51426 17.9238 3.33306 17.3018 3.33331 16.6667V15C3.33331 14.116 3.6845 13.2681 4.30962 12.643C4.93475 12.0179 5.78259 11.6667 6.66665 11.6667H10.6366L13.51 5.92171C13.7156 5.5405 14.0614 5.25428 14.4744 5.12369C14.8873 4.99309 15.3349 5.02838 15.7223 5.22207C16.1097 5.41576 16.4065 5.75265 16.5498 6.16136C16.693 6.57008 16.6716 7.01853 16.49 7.41171L14.3633 11.6667H25.6366L23.51 7.41171C23.404 7.21525 23.3386 6.99951 23.3177 6.7773C23.2967 6.55508 23.3205 6.33091 23.3879 6.1181C23.4552 5.90528 23.5645 5.70815 23.7095 5.5384C23.8544 5.36866 24.0319 5.22975 24.2316 5.12993C24.4312 5.03011 24.6489 4.97141 24.8716 4.95731C25.0944 4.94321 25.3177 4.97399 25.5284 5.04784C25.739 5.12169 25.9327 5.23709 26.0978 5.38721C26.263 5.53732 26.3964 5.71908 26.49 5.92171ZM31.2566 20H8.74331L11.045 30.3617C11.1273 30.7318 11.3333 31.0628 11.629 31.3001C11.9247 31.5373 12.2925 31.6666 12.6716 31.6667H27.325C27.7041 31.6666 28.0719 31.5373 28.3676 31.3001C28.6634 31.0628 28.8694 30.7318 28.9516 30.3617L31.2566 20ZM33.3333 15H6.66665V16.6667H33.3333V15Z" fill="#FFFEFB"/>
</svg>
